<svg xmlns="http://www.w3.org/2000/svg" xmlns:xlink="http://www.w3.org/1999/xlink" viewBox="0 0 48 48"><defs><style>.cls-1{fill:url(#radial-gradient);}.cls-2{fill:#0080b8;}.cls-3{mix-blend-mode:screen;fill:url(#linear-gradient);}.cls-4{fill:url(#linear-gradient-2);}.cls-5{fill:#15272a;}</style><radialGradient id="radial-gradient" cx="5.92" cy="12.23" r="42.94" gradientTransform="translate(0)" gradientUnits="userSpaceOnUse"><stop offset="0" stop-color="#d1edfb"/><stop offset="1" stop-color="#3da3db"/></radialGradient><linearGradient id="linear-gradient" x1="24" y1="1.2" x2="24" y2="38.22" gradientUnits="userSpaceOnUse"><stop offset="0" stop-color="#fff"/><stop offset="1"/></linearGradient><linearGradient id="linear-gradient-2" x1="16241.03" y1="33.82" x2="16241.03" y2="12.55" gradientTransform="matrix(-1, 0, 0, 1, 16264.09, 0)" gradientUnits="userSpaceOnUse"><stop offset="0" stop-color="#706f71"/><stop offset="1" stop-color="#050607"/></linearGradient><symbol id="Bullet_4_-_Left" data-name="Bullet 4 - Left" viewBox="0 0 48 48"><rect class="cls-1" x="0.5" y="0.5" width="47" height="47" rx="9.5" ry="9.5"/><path class="cls-2" d="M38,1a9,9,0,0,1,9,9V38a9,9,0,0,1-9,9H10a9,9,0,0,1-9-9V10a9,9,0,0,1,9-9H38m0-1H10A10,10,0,0,0,0,10V38A10,10,0,0,0,10,48H38A10,10,0,0,0,48,38V10A10,10,0,0,0,38,0Z"/><path class="cls-3" d="M38,2H10a8,8,0,0,0-8,8V24.48a88.5,88.5,0,0,0,22,2.69,88.5,88.5,0,0,0,22-2.69V10A8,8,0,0,0,38,2Z"/><polygon class="cls-4" points="11.59 24 24.28 12.36 24.28 20 34.52 20 34.52 28 24.28 28 24.28 35.64 11.59 24"/><path class="cls-5" d="M24,12.93v7.32H34.27v7.5H24v7.32L12,24,24,12.93m.5-1.14L11.22,24,24.53,36.21v-8H34.77v-8.5H24.53v-8Z"/></symbol></defs><title>Asset 2</title><g id="Layer_2" data-name="Layer 2"><g id="Layer_1-2" data-name="Layer 1"><use width="48" height="48" xlink:href="#Bullet_4_-_Left"/></g></g></svg>